<?xml version="1.0" encoding="UTF-8"?>
<svg width="299px" height="40px" viewBox="0 0 299 40" version="1.1" xmlns="http://www.w3.org/2000/svg" xmlns:xlink="http://www.w3.org/1999/xlink">
    <!-- Generator: Sketch 61.2 (89653) - https://sketch.com -->
    <title>logo_MITsloan</title>
    <desc>Created with Sketch.</desc>
    <g id="white-label-EE" stroke="none" stroke-width="1" fill="none" fill-rule="evenodd">
        <g id="school-logos" transform="translate(-50.000000, -604.000000)" fill-rule="nonzero">
            <g id="logo_MITsloan" transform="translate(50.000000, 604.000000)">
                <g id="Group" transform="translate(100.878314, 25.093481)" fill="#A41F35">
                    <polygon id="Path" points="0.0378293677 13.341157 6.89755471 13.341157 6.89755471 11.664055 1.85363902 11.664055 1.85363902 7.32628754 6.74623724 7.32628754 6.74623724 5.63657579 1.85363902 5.63657579 1.85363902 2.50934806 6.89755471 2.50934806 6.89755471 0.8196363 0.0378293677 0.8196363"></polygon>
                    <polygon id="Path" points="18.3346335 0.8196363 16.2540183 0.8196363 13.6816213 5.13218422 11.2605418 0.8196363 9.19253635 0.8196363 12.6476186 6.7966764 8.71336436 13.341157 10.7561502 13.341157 13.6690115 8.47377836 16.4809945 13.341157 18.5237804 13.341157 14.715624 6.7966764"></polygon>
                    <polygon id="Path" points="20.8061522 13.341157 27.6784874 13.341157 27.6784874 11.664055 22.6345717 11.664055 22.6345717 7.32628754 27.5271699 7.32628754 27.5271699 5.63657579 22.6345717 5.63657579 22.6345717 2.50934806 27.6784874 2.50934806 27.6784874 0.8196363 20.8061522 0.8196363"></polygon>
                    <path d="M36.7449258,0.567440515 C33.0124282,0.567440515 30.0995669,3.45508225 30.0995669,7.14975049 C30.0995669,10.7057111 33.025038,13.6059626 36.6188279,13.6059626 C37.7410992,13.6059626 38.9642487,13.2781081 39.9099829,12.7232773 L39.9856417,12.685448 L39.9856417,10.4787349 L39.7460557,10.6931013 C38.8633704,11.487518 37.7410992,11.9162508 36.5809986,11.9162508 C34.0086016,11.9162508 31.9279863,9.75997687 31.9279863,7.09931134 C31.9279863,4.42603602 34.0338211,2.24454248 36.6188279,2.24454248 C37.753709,2.24454248 38.9264194,2.67327532 39.7460557,3.40464309 L39.9856417,3.61900951 L39.9856417,1.45012576 L39.9099829,1.41229639 C38.9894683,0.857465668 37.9050264,0.567440515 36.7449258,0.567440515 Z" id="Path"></path>
                    <path d="M50.2247905,8.18375321 C50.2247905,10.6678817 49.3042759,11.8784215 47.4128075,11.8784215 C45.5213391,11.8784215 44.6008245,10.6678817 44.6008245,8.18375321 L44.6008245,0.8196363 L42.7850149,0.8196363 L42.7850149,8.70075457 C42.7850149,11.6262257 44.6386539,13.6059626 47.4128075,13.6059626 C50.1743514,13.6059626 52.0406002,11.6388355 52.0406002,8.70075457 L52.0406002,0.8196363 L50.2247905,0.8196363 L50.2247905,8.18375321 Z" id="Path"></path>
                    <polygon id="Path" points="54.2220937 2.50934806 57.134955 2.50934806 57.134955 13.341157 58.9507647 13.341157 58.9507647 2.50934806 61.8510162 2.50934806 61.8510162 0.8196363 54.2220937 0.8196363"></polygon>
                    <rect id="Rectangle" x="64.2216566" y="0.8196363" width="1.81580965" height="12.5215207"></rect>
                    <polygon id="Path" points="73.7168278 9.63387897 70.1734771 0.8196363 68.1811304 0.8196363 73.7168278 14.236452 79.2399155 0.8196363 77.2601786 0.8196363"></polygon>
                    <polygon id="Path" points="81.4214091 13.341157 88.2937442 13.341157 88.2937442 11.664055 83.2498285 11.664055 83.2498285 7.32628754 88.1424267 7.32628754 88.1424267 5.63657579 83.2498285 5.63657579 83.2498285 2.50934806 88.2937442 2.50934806 88.2937442 0.8196363 81.4214091 0.8196363"></polygon>
                    <polygon id="Path" points="97.5871589 13.341157 104.446884 13.341157 104.446884 11.664055 99.4029685 11.664055 99.4029685 7.32628754 104.295567 7.32628754 104.295567 5.63657579 99.4029685 5.63657579 99.4029685 2.50934806 104.446884 2.50934806 104.446884 0.8196363 97.5871589 0.8196363"></polygon>
                    <path d="M110.08346,0.8196363 L107.410185,0.8196363 L107.410185,13.341157 L110.033021,13.341157 C114.383398,13.341157 117.094503,10.9200775 117.094503,7.01104281 C117.094503,3.25332562 114.345569,0.8196363 110.08346,0.8196363 Z M109.225994,2.50934806 L109.616898,2.50934806 C112.201905,2.50934806 115.278693,3.30376478 115.278693,7.08670155 C115.278693,9.17992656 114.29513,11.664055 109.616898,11.664055 L109.225994,11.664055 L109.225994,2.50934806 Z" id="Shape"></path>
                    <path d="M127.056236,8.18375321 C127.056236,10.6678817 126.135722,11.8784215 124.244253,11.8784215 C122.352785,11.8784215 121.43227,10.6678817 121.43227,8.18375321 L121.43227,0.8196363 L119.616461,0.8196363 L119.616461,8.70075457 C119.616461,11.6262257 121.4701,13.6059626 124.244253,13.6059626 C127.005797,13.6059626 128.872046,11.6388355 128.872046,8.70075457 L128.872046,0.8196363 L127.056236,0.8196363 L127.056236,8.18375321 Z" id="Path"></path>
                    <path d="M138.165461,0.567440515 C134.432963,0.567440515 131.520102,3.45508225 131.520102,7.14975049 C131.520102,10.7057111 134.445573,13.6059626 138.039363,13.6059626 C139.161634,13.6059626 140.384784,13.2781081 141.330518,12.7232773 L141.406176,12.685448 L141.406176,10.4787349 L141.16659,10.6931013 C140.283905,11.487518 139.161634,11.9162508 138.001533,11.9162508 C135.429136,11.9162508 133.348521,9.75997687 133.348521,7.09931134 C133.348521,4.42603602 135.454356,2.24454248 138.039363,2.24454248 C139.174244,2.24454248 140.346954,2.67327532 141.16659,3.40464309 L141.406176,3.61900951 L141.406176,1.45012576 L141.330518,1.41229639 C140.422613,0.857465668 139.325561,0.567440515 138.165461,0.567440515 Z" id="Path"></path>
                    <path d="M143.045449,13.341157 L144.999966,13.341157 L146.399653,10.2769782 L151.821862,10.2769782 L153.221549,13.341157 L155.176066,13.341157 L149.110758,0.0882685246 L143.045449,13.341157 Z M149.110758,4.14862066 L151.065275,8.58726647 L147.16885,8.58726647 L149.110758,4.14862066 Z" id="Shape"></path>
                    <polygon id="Path" points="156.197459 2.50934806 159.110321 2.50934806 159.110321 13.341157 160.92613 13.341157 160.92613 2.50934806 163.826382 2.50934806 163.826382 0.8196363 156.197459 0.8196363"></polygon>
                    <rect id="Rectangle" x="166.197022" y="0.8196363" width="1.81580965" height="12.5215207"></rect>
                    <path d="M177.205368,0.567440515 C173.586359,0.567440515 170.648278,3.49291162 170.648278,7.08670155 C170.648278,10.7435404 173.52331,13.6059626 177.205368,13.6059626 C180.887427,13.6059626 183.762458,10.7435404 183.762458,7.08670155 C183.762458,3.49291162 180.824378,0.567440515 177.205368,0.567440515 Z M177.205368,11.8910312 C174.595142,11.8910312 172.464087,9.73475729 172.464087,7.08670155 C172.464087,4.35037728 174.506873,2.28237185 177.205368,2.28237185 C179.903863,2.28237185 181.946649,4.35037728 181.946649,7.08670155 C181.946649,9.73475729 179.815594,11.8910312 177.205368,11.8910312 Z" id="Shape"></path>
                    <polygon id="Path" points="195.489562 0.8196363 195.489562 9.63387897 186.309636 0.0252195785 186.309636 13.341157 188.125446 13.341157 188.125446 4.4512556 197.305372 14.0725248 197.305372 0.8196363"></polygon>
                </g>
                <polygon id="Path" fill="#8A8C8C" points="50.5274255 39.1533956 56.4666362 39.1533956 58.0050305 39.1533956 62.0275532 39.1533956 62.0275532 0.668318829 50.5274255 0.668318829"></polygon>
                <polygon id="Path" fill="#555759" points="63.0489462 0.668318829 63.0489462 10.1634901 67.8028367 10.1634901 67.8028367 39.1533956 79.870405 39.1533956 79.870405 10.1634901 92.9089271 10.1634901 92.9089271 0.668318829"></polygon>
                <polygon id="Path" fill="#A41F35" points="49.4934227 19.9108572 49.3294955 19.0786111 45.9122426 0.668318829 34.3868952 0.668318829 26.5814357 19.3560265 18.7759762 0.668318829 7.21279944 0.668318829 0.0504391569 39.1533956 11.5379571 39.1533956 15.2200156 19.4316852 23.8577212 39.1533956 29.3051502 39.1533956 37.9050264 19.4316852 41.5744751 39.1533956 45.5843881 39.1533956 49.4934227 39.1533956"></polygon>
                <g id="Group" transform="translate(100.752216, 0.000000)" fill="#555759">
                    <g id="XMLID_72_">
                        <polygon id="XMLID_91_" points="3.53074098 0.693538408 8.435949 0.693538408 12.3323739 10.9452971 16.4557749 0.693538408 21.4114221 0.693538408 24.9295533 19.8730278 19.5325635 19.8730278 17.9311203 8.83946225 17.8806811 8.83946225 13.2781081 19.8730278 11.2983712 19.8730278 6.89755471 8.83946225 6.84711555 8.83946225 5.04391569 19.8730278 0 19.8730278"></polygon>
                        <path d="M32.4828171,16.5440435 L31.1587892,19.8730278 L25.8626777,19.8730278 L33.2394044,0.693538408 L38.6868334,0.693538408 L45.9122426,19.8730278 L40.5909115,19.8730278 L39.3425424,16.5440435 L32.4828171,16.5440435 Z M35.9757287,6.62013935 L35.9252895,6.62013935 L33.8698939,12.7232773 L38.0185145,12.7232773 L35.9757287,6.62013935 Z" id="XMLID_88_"></path>
                        <polygon id="XMLID_86_" points="47.3749781 0.693538408 52.3558449 0.693538408 61.4853323 12.4206424 61.5357715 12.4206424 61.5357715 0.693538408 66.5166382 0.693538408 66.5166382 19.8730278 61.5357715 19.8730278 52.406284 8.12070427 52.3558449 8.12070427 52.3558449 19.8730278 47.3749781 19.8730278 47.3749781 0.693538408"></polygon>
                        <path d="M74.5995131,16.5440435 L73.2754852,19.8730278 L67.9793737,19.8730278 L75.3561004,0.693538408 L80.8035294,0.693538408 L88.0289386,19.8730278 L82.7202174,19.8730278 L81.4718482,16.5440435 L74.5995131,16.5440435 Z M78.0798149,6.62013935 L78.0293758,6.62013935 L75.9739801,12.7232773 L80.1226008,12.7232773 L78.0798149,6.62013935 Z" id="XMLID_83_"></path>
                        <path d="M107.927186,9.16731677 C107.876747,11.96669 107.67499,14.3499401 105.972669,16.7458001 C104.09381,19.3686363 101.269217,20.5035173 98.0663309,20.5035173 C92.0388516,20.5035173 87.8397918,16.4053358 87.8397918,10.3778565 C87.8397918,4.14862066 92.0640712,0.0504391569 98.2428679,0.0504391569 C102.189732,0.0504391569 105.241301,1.82841944 106.893183,5.42220937 L102.164512,7.40194628 C101.483584,5.57352684 100.033458,4.35037728 98.0158917,4.35037728 C94.7373465,4.35037728 93.035025,7.47760501 93.035025,10.4030761 C93.035025,13.3789864 94.8130052,16.4053358 98.0915504,16.4053358 C100.247824,16.4053358 101.912317,15.2830645 102.114073,13.0763514 L98.0411113,13.0763514 L98.0411113,9.16731677 L107.927186,9.16731677 Z" id="XMLID_81_"></path>
                        <polygon id="XMLID_79_" points="115.253474 4.9178178 115.253474 8.12070427 120.87744 8.12070427 120.87744 12.3449837 115.253474 12.3449837 115.253474 15.6487484 121.180075 15.6487484 121.180075 19.8730278 110.272607 19.8730278 110.272607 0.693538408 121.180075 0.693538408 121.180075 4.9178178"></polygon>
                        <polygon id="XMLID_77_" points="154.709504 4.9178178 154.709504 8.12070427 160.33347 8.12070427 160.33347 12.3449837 154.709504 12.3449837 154.709504 15.6487484 160.636105 15.6487484 160.636105 19.8730278 149.728637 19.8730278 149.728637 0.693538408 160.636105 0.693538408 160.636105 4.9178178"></polygon>
                        <polygon id="XMLID_75_" points="163.725503 0.693538408 168.70637 0.693538408 177.835858 12.4206424 177.886297 12.4206424 177.886297 0.693538408 182.867163 0.693538408 182.867163 19.8730278 177.886297 19.8730278 168.756809 8.12070427 168.70637 8.12070427 168.70637 19.8730278 163.725503 19.8730278"></polygon>
                        <polygon id="XMLID_73_" points="193.560265 19.8730278 188.579398 19.8730278 188.579398 4.9178178 184.455997 4.9178178 184.455997 0.693538408 197.683666 0.693538408 197.683666 4.9178178 193.560265 4.9178178"></polygon>
                    </g>
                    <polygon id="XMLID_70_" points="126.514015 0.693538408 131.419223 0.693538408 135.315648 10.9452971 139.439049 0.693538408 144.394696 0.693538408 147.900218 19.8730278 142.503228 19.8730278 140.901785 8.83946225 140.851346 8.83946225 136.248773 19.8730278 134.269036 19.8730278 129.880829 8.83946225 129.83039 8.83946225 128.02719 19.8730278 122.983274 19.8730278"></polygon>
                </g>
            </g>
        </g>
    </g>
</svg>